# xmcd
#
# Track frame offsets:
#	150
#	14722
#	28417
#	41690
#	55477
#	68392
#	83077
#	96927
#	109105
#	121022
#	134212
#	148020
#	161050
#	171587
#	184300
#	196512
#	208947
#	221615
#	234110
#	246140
#
# Disc length: 3543
#
# Revision: 6
# Processed by: cddbd v1.5.1PL0 Copyright (c) Steve Scherf et al.
# Submitted via: ExactAudioCopy v0.90b4
# Normalized: r5:DSETVAR1
#
DISCID=2b0dd514
DTITLE=Various Artist - Legends of The Blues Volume 1
DYEAR=1990
DGENRE=Blues
TTITLE0=Bessie Smith - St. Louis Blues
TTITLE1=Blind Lemon Jefferson - Match Box Blues
TTITLE2=Mississippi John Hurt - Ain't No Tellin'
TTITLE3=Blind Willie Johnson - Lord, I Just Can't Keep From Cryin'
TTITLE4=Bo Carter - Pigmeat Is What I Crave
TTITLE5=Blind Willie McTell - Southern Can is Mine
TTITLE6=Lonnie Johnson - Low Down St. Louis Blues
TTITLE7=Charley Patton - Revenue Man Blues
TTITLE8=Leroy Carr - Stormy Night Blues
TTITLE9=Josh White - I Believe I'll Make A Change
TTITLE10=Leadbelly - Fort Worth And Dallas Blues
TTITLE11=Peetie Wheatstraw - Sweet Home Blues
TTITLE12=Robert Johnson - Stop Breakin' Down Blues
TTITLE13=Blind Boy Fuller - Truckin' My Blues Away, #2
TTITLE14=Big Bill Broonzy - Spreadin' Snakes Blues
TTITLE15=Memphis Minnie - Nothing In Ramblin'
TTITLE16=Bukka White - Fixin' To Die Blues
TTITLE17=Muddy Waters - Hard Day Blues
TTITLE18=Big Joe Williams - Don't You Leave Me Here
TTITLE19=Son House - Death Letter
EXTD=YEAR: 1990 ID3G:   0
EXTT0=Bessie Smith
EXTT1=Blind Lemon Jefferson
EXTT2=Mississippi John Hurt
EXTT3=Blind Willie Johnson
EXTT4=Bo Carter
EXTT5=Blind Willie McTell
EXTT6=Lonnie Johnson
EXTT7=Charley Patton
EXTT8=Leroy Carr
EXTT9=Josh White
EXTT10=Leadbelly
EXTT11=Peetie Wheatstraw
EXTT12=Robert Johnson
EXTT13=Blinf Boy Fuller
EXTT14=Big Bill Bronzy
EXTT15=Memphis Minnie
EXTT16=Bukka White
EXTT17=Muddy Waters
EXTT18=Big Joe Williams
EXTT19=Son House
PLAYORDER=
